{
  "accessors": [
    {
      "bufferView": 2,
      "componentType": 5126,
      "count": 88,
      "max": [
        7.339175224304199,
        1.0,
        1.0
      ],
      "min": [
        -1.0,
        -1.0,
        -1.0
      ],
      "type": "VEC3"
    },
    {
      "bufferView": 2,
      "byteOffset": 1056,
      "componentType": 5126,
      "count": 88,
      "max": [
        1.0,
        1.0,
        1.0
      ],
      "min": [
        -1.0,
        -1.0,
        -1.0
      ],
      "type": "VEC3"
    },
    {
      "bufferView": 1,
      "componentType": 5126,
      "count": 88,
      "max": [
        0.875,
        1.0
      ],
      "min": [
        0.125,
        0.0
      ],
      "type": "VEC2"
    },
    {
      "bufferView": 0,
      "componentType": 5125,
      "count": 132,
      "type": "SCALAR"
    },
    {
      "bufferView": 2,
      "byteOffset": 2112,
      "componentType": 5126,
      "count": 24,
      "max": [
        1.0,
        1.0,
        1.0
      ],
      "min": [
        -1.0,
        -1.0,
        -1.0
      ],
      "type": "VEC3"
    },
    {
      "bufferView": 2,
      "byteOffset": 2400,
      "componentType": 5126,
      "count": 24,
      "max": [
        1.0,
        1.0,
        1.0
      ],
      "min": [
        -1.0,
        -1.0,
        -1.0
      ],
      "type": "VEC3"
    },
    {
      "bufferView": 1,
      "byteOffset": 704,
      "componentType": 5126,
      "count": 24,
      "max": [
        0.875,
        1.0
      ],
      "min": [
        0.125,
        0.0
      ],
      "type": "VEC2"
    },
    {
      "bufferView": 0,
      "byteOffset": 528,
      "componentType": 5125,
      "count": 36,
      "type": "SCALAR"
    },
    {
      "bufferView": 2,
      "byteOffset": 2688,
      "componentType": 5126,
      "count": 24,
      "max": [
        1.0,
        1.0,
        1.0
      ],
      "min": [
        -1.0,
        -1.0,
        -1.0
      ],
      "type": "VEC3"
    },
    {
      "bufferView": 2,
      "byteOffset": 2976,
      "componentType": 5126,
      "count": 24,
      "max": [
        1.0,
        1.0,
        1.0
      ],
      "min": [
        -1.0,
        -1.0,
        -1.0
      ],
      "type": "VEC3"
    },
    {
      "bufferView": 1,
      "byteOffset": 896,
      "componentType": 5126,
      "count": 24,
      "max": [
        0.875,
        1.0
      ],
      "min": [
        0.125,
        0.0
      ],
      "type": "VEC2"
    },
    {
      "bufferView": 0,
      "byteOffset": 672,
      "componentType": 5125,
      "count": 36,
      "type": "SCALAR"
    },
    {
      "bufferView": 2,
      "byteOffset": 3264,
      "componentType": 5126,
      "count": 24,
      "max": [
        1.0,
        1.0,
        1.0
      ],
      "min": [
        -1.0,
        -1.0,
        -1.0
      ],
      "type": "VEC3"
    },
    {
      "bufferView": 2,
      "byteOffset": 3552,
      "componentType": 5126,
      "count": 24,
      "max": [
        1.0,
        1.0,
        1.0
      ],
      "min": [
        -1.0,
        -1.0,
        -1.0
      ],
      "type": "VEC3"
    },
    {
      "bufferView": 1,
      "byteOffset": 1088,
      "componentType": 5126,
      "count": 24,
      "max": [
        0.875,
        1.0
      ],
      "min": [
        0.125,
        0.0
      ],
      "type": "VEC2"
    },
    {
      "bufferView": 0,
      "byteOffset": 816,
      "componentType": 5125,
      "count": 36,
      "type": "SCALAR"
    },
    {
      "bufferView": 2,
      "byteOffset": 3840,
      "componentType": 5126,
      "count": 24,
      "max": [
        1.0,
        1.0,
        1.0
      ],
      "min": [
        -1.0,
        -1.0,
        -1.0
      ],
      "type": "VEC3"
    },
    {
      "bufferView": 2,
      "byteOffset": 4128,
      "componentType": 5126,
      "count": 24,
      "max": [
        1.0,
        1.0,
        1.0
      ],
      "min": [
        -1.0,
        -1.0,
        -1.0
      ],
      "type": "VEC3"
    },
    {
      "bufferView": 1,
      "byteOffset": 1280,
      "componentType": 5126,
      "count": 24,
      "max": [
        0.875,
        1.0
      ],
      "min": [
        0.125,
        0.0
      ],
      "type": "VEC2"
    },
    {
      "bufferView": 0,
      "byteOffset": 960,
      "componentType": 5125,
      "count": 36,
      "type": "SCALAR"
    },
    {
      "bufferView": 2,
      "byteOffset": 4416,
      "componentType": 5126,
      "count": 192,
      "max": [
        1.0,
        1.0,
        1.0
      ],
      "min": [
        -1.0,
        -1.0,
        -1.0
      ],
      "type": "VEC3"
    },
    {
      "bufferView": 2,
      "byteOffset": 6720,
      "componentType": 5126,
      "count": 192,
      "max": [
        0.9951847195625305,
        0.9951847195625305,
        1.0
      ],
      "min": [
        -0.9951847195625305,
        -0.9951847195625305,
        -1.0
      ],
      "type": "VEC3"
    },
    {
      "bufferView": 1,
      "byteOffset": 1472,
      "componentType": 5126,
      "count": 192,
      "max": [
        1.0,
        1.0
      ],
      "min": [
        0.0,
        0.01000000536441803
      ],
      "type": "VEC2"
    },
    {
      "bufferView": 0,
      "byteOffset": 1104,
      "componentType": 5125,
      "count": 372,
      "type": "SCALAR"
    }
  ],
  "asset": {
    "extras": {
      "author": "Walther (https://sketchfab.com/GameDevWalther)",
      "license": "CC-BY-4.0 (http://creativecommons.org/licenses/by/4.0/)",
      "source": "https://sketchfab.com/3d-models/shovel-3d-model-1456e48991ec440e94a89e1676343c71",
      "title": "Shovel 3D Model"
    },
    "generator": "Sketchfab-16.72.0",
    "version": "2.0"
  },
  "bufferViews": [
    {
      "buffer": 0,
      "byteLength": 2592,
      "name": "floatBufferViews",
      "target": 34963
    },
    {
      "buffer": 0,
      "byteLength": 3008,
      "byteOffset": 2592,
      "byteStride": 8,
      "name": "floatBufferViews",
      "target": 34962
    },
    {
      "buffer": 0,
      "byteLength": 9024,
      "byteOffset": 5600,
      "byteStride": 12,
      "name": "floatBufferViews",
      "target": 34962
    }
  ],
  "buffers": [
    {
      "byteLength": 14624,
      "uri": "scene.bin"
    }
  ],
  "materials": [
    {
      "doubleSided": true,
      "name": "Material.001",
      "pbrMetallicRoughness": {
        "baseColorFactor": [
          0.0338964,
          0.0338964,
          0.0338964,
          1.0
        ],
        "metallicFactor": 0.0,
        "roughnessFactor": 0.9924205345407476
      }
    },
    {
      "doubleSided": true,
      "name": "Material.006",
      "pbrMetallicRoughness": {
        "baseColorFactor": [
          0.0176418,
          0.017642,
          0.017642,
          1.0
        ],
        "metallicFactor": 0.0,
        "roughnessFactor": 0.9960551383818559
      }
    },
    {
      "doubleSided": true,
      "name": "Material.004",
      "pbrMetallicRoughness": {
        "baseColorFactor": [
          0.0176418,
          0.017642,
          0.017642,
          1.0
        ],
        "metallicFactor": 0.0,
        "roughnessFactor": 0.9960551383818559
      }
    },
    {
      "doubleSided": true,
      "name": "Material.003",
      "pbrMetallicRoughness": {
        "baseColorFactor": [
          0.026443,
          0.026443,
          0.026443,
          1.0
        ],
        "metallicFactor": 0.0,
        "roughnessFactor": 0.9940871654470973
      }
    },
    {
      "doubleSided": true,
      "name": "Material.005",
      "pbrMetallicRoughness": {
        "baseColorFactor": [
          0.0176418,
          0.017642,
          0.017642,
          1.0
        ],
        "metallicFactor": 0.0,
        "roughnessFactor": 0.9960551383818559
      }
    },
    {
      "doubleSided": true,
      "name": "Material.002",
      "pbrMetallicRoughness": {
        "baseColorFactor": [
          0.145626,
          0.0290972,
          0.00576127,
          1.0
        ],
        "metallicFactor": 0.0,
        "roughnessFactor": 0.9883307732011907
      }
    }
  ],
  "meshes": [
    {
      "name": "Cube_Material.001_0",
      "primitives": [
        {
          "attributes": {
            "NORMAL": 1,
            "POSITION": 0,
            "TEXCOORD_0": 2
          },
          "indices": 3,
          "material": 0,
          "mode": 4
        }
      ]
    },
    {
      "name": "Cube.001_Material.006_0",
      "primitives": [
        {
          "attributes": {
            "NORMAL": 5,
            "POSITION": 4,
            "TEXCOORD_0": 6
          },
          "indices": 7,
          "material": 1,
          "mode": 4
        }
      ]
    },
    {
      "name": "Cube.002_Material.004_0",
      "primitives": [
        {
          "attributes": {
            "NORMAL": 9,
            "POSITION": 8,
            "TEXCOORD_0": 10
          },
          "indices": 11,
          "material": 2,
          "mode": 4
        }
      ]
    },
    {
      "name": "Cube.003_Material.003_0",
      "primitives": [
        {
          "attributes": {
            "NORMAL": 13,
            "POSITION": 12,
            "TEXCOORD_0": 14
          },
          "indices": 15,
          "material": 3,
          "mode": 4
        }
      ]
    },
    {
      "name": "Cube.004_Material.005_0",
      "primitives": [
        {
          "attributes": {
            "NORMAL": 17,
            "POSITION": 16,
            "TEXCOORD_0": 18
          },
          "indices": 19,
          "material": 4,
          "mode": 4
        }
      ]
    },
    {
      "name": "Cylinder_Material.002_0",
      "primitives": [
        {
          "attributes": {
            "NORMAL": 21,
            "POSITION": 20,
            "TEXCOORD_0": 22
          },
          "indices": 23,
          "material": 5,
          "mode": 4
        }
      ]
    }
  ],
  "nodes": [
    {
      "children": [
        1
      ],
      "matrix": [
        1.0,
        0.0,
        0.0,
        0.0,
        0.0,
        2.220446049250313e-16,
        -1.0,
        0.0,
        0.0,
        1.0,
        2.220446049250313e-16,
        0.0,
        0.0,
        0.0,
        0.0,
        1.0
      ],
      "name": "Sketchfab_model"
    },
    {
      "children": [
        2
      ],
      "matrix": [
        0.009999999776482582,
        0.0,
        0.0,
        0.0,
        0.0,
        0.0,
        0.009999999776482582,
        0.0,
        0.0,
        -0.009999999776482582,
        0.0,
        0.0,
        0.0,
        0.0,
        0.0,
        1.0
      ],
      "name": "33cc7c11770b4f4581c82a12ab65d3b0.fbx"
    },
    {
      "children": [
        3,
        5,
        7,
        9,
        11,
        13,
        15,
        17
      ],
      "name": "RootNode"
    },
    {
      "children": [
        4
      ],
      "matrix": [
        -65.1558127516791,
        -44.52713915455176,
        -61.417049289096546,
        0.0,
        -32.401349332924404,
        89.53957282709818,
        -30.5420854760369,
        0.0,
        68.59207001076241,
        8.666908837178815e-06,
        -72.76761921184274,
        0.0,
        735.88916015625,
        495.8309326171875,
        692.5791015625,
        1.0
      ],
      "name": "Camera"
    },
    {
      "name": "Object_4"
    },
    {
      "children": [
        6
      ],
      "matrix": [
        13.999998092651367,
        0.0,
        0.0,
        0.0,
        0.0,
        -7.820192610807908e-06,
        -47.99999999999937,
        0.0,
        0.0,
        9.999999999999869,
        -1.6292067939183141e-06,
        0.0,
        193.76499938964844,
        0.0,
        0.0,
        1.0
      ],
      "name": "Cube"
    },
    {
      "mesh": 0,
      "name": "Cube_Material.001_0"
    },
    {
      "children": [
        8
      ],
      "matrix": [
        -4.443991184234619,
        -0.0,
        -0.0,
        -0.0,
        -0.0,
        3.1945803453439704e-06,
        -19.60819435119603,
        -0.0,
        -0.0,
        10.291306495666367,
        1.6766666461035545e-06,
        -0.0,
        -186.00079345703125,
        0.0,
        0.0,
        1.0
      ],
      "name": "Cube.001"
    },
    {
      "mesh": 1,
      "name": "Cube.001_Material.006_0"
    },
    {
      "children": [
        10
      ],
      "matrix": [
        -4.443991184234619,
        -0.0,
        -0.0,
        -0.0,
        -0.0,
        3.1945803453439704e-06,
        -19.60819435119603,
        -0.0,
        -0.0,
        10.291306495666367,
        1.6766666461035545e-06,
        -0.0,
        -206.5898895263672,
        0.0,
        0.0,
        1.0
      ],
      "name": "Cube.002"
    },
    {
      "mesh": 2,
      "name": "Cube.002_Material.004_0"
    },
    {
      "children": [
        12
      ],
      "matrix": [
        -2.823508407399451e-07,
        -0.0,
        3.7398502826690576,
        -0.0,
        -12.464603424072196,
        -9.410513764644807e-07,
        -9.410513771564052e-07,
        -0.0,
        -7.549789954319763e-07,
        9.999999999999973,
        -5.551115123125783e-14,
        -0.0,
        -196.37867736816406,
        0.2770780026912689,
        -15.543301582336426,
        1.0
      ],
      "name": "Cube.003"
    },
    {
      "mesh": 3,
      "name": "Cube.003_Material.003_0"
    },
    {
      "children": [
        14
      ],
      "matrix": [
        -2.823508407399451e-07,
        -0.0,
        3.7398502826690576,
        -0.0,
        -12.464603424072196,
        -9.410513764644807e-07,
        -9.410513771564052e-07,
        -0.0,
        -7.712823357574887e-07,
        10.215944290161106,
        -5.6709882846123954e-14,
        -0.0,
        -196.37867736816406,
        0.0,
        15.80362319946289,
        1.0
      ],
      "name": "Cube.004"
    },
    {
      "mesh": 4,
      "name": "Cube.004_Material.005_0"
    },
    {
      "children": [
        16
      ],
      "matrix": [
        -4.371139006309477e-07,
        -9.999999999999991,
        -1.1102230246251565e-15,
        0.0,
        -4.371139011860592e-07,
        1.9984014443252818e-14,
        -9.999999999999991,
        0.0,
        182.26818847656216,
        -7.967195892710615e-06,
        -7.967195882592698e-06,
        0.0,
        0.0,
        0.0,
        0.0,
        1.0
      ],
      "name": "Cylinder"
    },
    {
      "mesh": 5,
      "name": "Cylinder_Material.002_0"
    },
    {
      "children": [
        18
      ],
      "matrix": [
        100.0,
        0.0,
        0.0,
        0.0,
        0.0,
        99.99999999999972,
        -7.5497901264043296e-06,
        0.0,
        0.0,
        7.5497901264043296e-06,
        99.99999999999972,
        0.0,
        0.0,
        0.0,
        0.0,
        1.0
      ],
      "name": "Sun"
    },
    {
      "children": [
        19
      ],
      "matrix": [
        1.0,
        0.0,
        0.0,
        0.0,
        0.0,
        2.220446049250313e-16,
        1.0,
        0.0,
        0.0,
        -1.0,
        2.220446049250313e-16,
        0.0,
        0.0,
        0.0,
        0.0,
        1.0
      ],
      "name": "Object_18"
    },
    {
      "name": "Object_19"
    }
  ],
  "scene": 0,
  "scenes": [
    {
      "name": "Sketchfab_Scene",
      "nodes": [
        0
      ]
    }
  ]
}
