{
  "accessors": [
    {
      "bufferView": 2,
      "componentType": 5126,
      "count": 214,
      "max": [
        0.6924880146980286,
        0.20303800702095032,
        1.0
      ],
      "min": [
        -0.6924880146980286,
        -0.20303800702095032,
        -0.109265998005867
      ],
      "type": "VEC3"
    },
    {
      "bufferView": 2,
      "byteOffset": 2568,
      "componentType": 5126,
      "count": 214,
      "max": [
        1.0,
        1.0,
        1.0
      ],
      "min": [
        -1.0,
        -1.0,
        -1.0
      ],
      "type": "VEC3"
    },
    {
      "bufferView": 3,
      "componentType": 5126,
      "count": 214,
      "max": [
        1.0,
        0.7750750184059143,
        1.0,
        1.0
      ],
      "min": [
        -1.0,
        -0.7750750184059143,
        -1.0,
        1.0
      ],
      "type": "VEC4"
    },
    {
      "bufferView": 1,
      "componentType": 5126,
      "count": 214,
      "max": [
        0.9579179883003235,
        0.9887409806251526
      ],
      "min": [
        0.011766299605369568,
        0.011259100399911404
      ],
      "type": "VEC2"
    },
    {
      "bufferView": 0,
      "componentType": 5125,
      "count": 528,
      "type": "SCALAR"
    },
    {
      "bufferView": 2,
      "byteOffset": 5136,
      "componentType": 5126,
      "count": 462,
      "max": [
        0.558800995349884,
        0.06775110214948654,
        -0.054261498153209686
      ],
      "min": [
        -0.558800995349884,
        -0.06775110214948654,
        -1.0
      ],
      "type": "VEC3"
    },
    {
      "bufferView": 2,
      "byteOffset": 10680,
      "componentType": 5126,
      "count": 462,
      "max": [
        1.0,
        1.0,
        1.0
      ],
      "min": [
        -1.0,
        -1.0,
        -1.0
      ],
      "type": "VEC3"
    },
    {
      "bufferView": 3,
      "byteOffset": 3424,
      "componentType": 5126,
      "count": 462,
      "max": [
        1.0,
        0.8403440117835999,
        0.6917920112609863,
        1.0
      ],
      "min": [
        -0.00010763500176835805,
        -0.8402490019798279,
        -0.6916930079460144,
        1.0
      ],
      "type": "VEC4"
    },
    {
      "bufferView": 1,
      "byteOffset": 1712,
      "componentType": 5126,
      "count": 462,
      "max": [
        0.5448510050773621,
        0.9887409806251526
      ],
      "min": [
        0.011259100399911404,
        0.4887790083885193
      ],
      "type": "VEC2"
    },
    {
      "bufferView": 0,
      "byteOffset": 2112,
      "componentType": 5125,
      "count": 2304,
      "type": "SCALAR"
    }
  ],
  "asset": {
    "extras": {
      "author": "Nichgon (https://sketchfab.com/nichgon)",
      "license": "CC-BY-4.0 (http://creativecommons.org/licenses/by/4.0/)",
      "source": "https://sketchfab.com/3d-models/padlock-c9f0cf0cbbe64ba49001d644244b1d16",
      "title": "Padlock"
    },
    "generator": "Sketchfab-12.67.0",
    "version": "2.0"
  },
  "bufferViews": [
    {
      "buffer": 0,
      "byteLength": 11328,
      "name": "floatBufferViews",
      "target": 34963
    },
    {
      "buffer": 0,
      "byteLength": 5408,
      "byteOffset": 11328,
      "byteStride": 8,
      "name": "floatBufferViews",
      "target": 34962
    },
    {
      "buffer": 0,
      "byteLength": 16224,
      "byteOffset": 16736,
      "byteStride": 12,
      "name": "floatBufferViews",
      "target": 34962
    },
    {
      "buffer": 0,
      "byteLength": 10816,
      "byteOffset": 32960,
      "byteStride": 16,
      "name": "floatBufferViews",
      "target": 34962
    }
  ],
  "buffers": [
    {
      "byteLength": 43776,
      "uri": "scene.bin"
    }
  ],
  "images": [
    {
      "uri": "textures/material_baseColor.jpeg"
    },
    {
      "uri": "textures/material_metallicRoughness.png"
    },
    {
      "uri": "textures/material_normal.jpeg"
    }
  ],
  "materials": [
    {
      "doubleSided": true,
      "name": "material",
      "normalTexture": {
        "index": 2
      },
      "occlusionTexture": {
        "index": 1
      },
      "pbrMetallicRoughness": {
        "baseColorTexture": {
          "index": 0
        },
        "metallicRoughnessTexture": {
          "index": 1
        }
      }
    }
  ],
  "meshes": [
    {
      "name": "defaultMaterial",
      "primitives": [
        {
          "attributes": {
            "NORMAL": 1,
            "POSITION": 0,
            "TANGENT": 2,
            "TEXCOORD_0": 3
          },
          "indices": 4,
          "material": 0,
          "mode": 4
        }
      ]
    },
    {
      "name": "defaultMaterial",
      "primitives": [
        {
          "attributes": {
            "NORMAL": 6,
            "POSITION": 5,
            "TANGENT": 7,
            "TEXCOORD_0": 8
          },
          "indices": 9,
          "material": 0,
          "mode": 4
        }
      ]
    }
  ],
  "nodes": [
    {
      "children": [
        1
      ],
      "matrix": [
        0.269781231880188,
        -4.3384130223593525e-17,
        -9.633212055513934e-33,
        0.0,
        0.0,
        5.99034670490246e-17,
        -0.269781231880188,
        0.0,
        4.3384130223593525e-17,
        0.269781231880188,
        5.99034670490246e-17,
        0.0,
        0.0,
        1.0164395367051604e-20,
        2.256949153578792e-36,
        1.0
      ],
      "name": "Sketchfab_model"
    },
    {
      "children": [
        2,
        4
      ],
      "matrix": [
        1.0,
        0.0,
        0.0,
        0.0,
        0.0,
        -4.371139006309477e-08,
        0.999999999999999,
        0.0,
        0.0,
        -0.999999999999999,
        -4.371139006309477e-08,
        0.0,
        0.0,
        0.0,
        0.0,
        1.0
      ],
      "name": "Collada visual scene group"
    },
    {
      "children": [
        3
      ],
      "name": "base_low"
    },
    {
      "mesh": 0,
      "name": "defaultMaterial"
    },
    {
      "children": [
        5
      ],
      "name": "top_low"
    },
    {
      "mesh": 1,
      "name": "defaultMaterial"
    }
  ],
  "samplers": [
    {
      "magFilter": 9729,
      "minFilter": 9987,
      "wrapS": 10497,
      "wrapT": 10497
    }
  ],
  "scene": 0,
  "scenes": [
    {
      "name": "Sketchfab_Scene",
      "nodes": [
        0
      ]
    }
  ],
  "textures": [
    {
      "sampler": 0,
      "source": 0
    },
    {
      "sampler": 0,
      "source": 1
    },
    {
      "sampler": 0,
      "source": 2
    }
  ]
}
